#!OML:ASF F:\VICON\USERDATA\INSTALL\rory3\rory3.ASF
:FULLY-SPECIFIED
:DEGREES
1939
root -11.7005 17.879 5.75525 178.706 54.7238 176.884
lowerback 12.0852 -6.18977 -11.2099
upperback 0.211753 -9.5845 2.59238
thorax -4.21782 -4.49554 10.3691
lowerneck 6.87614 -22.2317 -16.5478
upperneck 33.9881 -34.053 13.875
head 17.06 -15.2908 3.10133
rclavicle 9.74977e-014 3.47873e-015
rhumerus -39.9753 -14.6193 -74.7042
rradius 30.1073
rwrist 6.7419
rhand -16.2934 8.47359
rfingers 7.12502
rthumb 9.91709 -21.2728
lclavicle 9.74977e-014 3.47873e-015
lhumerus -35.9794 4.64063 80.0985
lradius 38.6557
lwrist -4.0261
lhand -17.9531 27.778
lfingers 7.12502
lthumb 8.31555 57.5943
rfemur -19.2577 2.55978 20.3261
rtibia 58.2239
rfoot -13.3851 5.79517
rtoes -3.86356
lfemur -8.46894 5.66063 -22.2881
ltibia 19.0701
lfoot -14.4871 -20.5227
ltoes -18.4643
1940
root -11.753 17.8737 5.82334 178.873 54.3312 177.137
lowerback 12.1805 -6.19329 -11.1792
upperback 0.255744 -9.59092 2.59226
thorax -4.22614 -4.49965 10.363
lowerneck 6.87452 -22.2301 -16.3636
upperneck 33.8632 -34.0427 13.9495
head 16.9664 -15.2681 3.12123
rclavicle 9.26834e-014 3.23025e-015
rhumerus -39.874 -14.5315 -74.7671
rradius 30.1633
rwrist 6.63523
rhand -16.169 8.38903
rfingers 7.12502
rthumb 10.0371 -21.3516
lclavicle 9.26834e-014 3.23025e-015
lhumerus -35.9623 4.77643 79.8187
lradius 38.4986
lwrist -3.87037
lhand -17.942 27.5723
lfingers 7.12502
lthumb 8.32633 57.3882
rfemur -18.2558 2.82649 20.6328
rtibia 57.6287
rfoot -13.8005 6.76794
rtoes -3.07984
lfemur -8.88754 5.6873 -22.0331
ltibia 19.3127
lfoot -13.6037 -21.1834
ltoes -17.2591
1941
root -11.8053 17.8647 5.89208 179.034 53.885 177.316
lowerback 12.2692 -6.25515 -11.1274
upperback 0.255884 -9.67723 2.55081
thorax -4.26945 -4.53949 10.3099
lowerneck 6.6302 -22.199 -16.1873
upperneck 34.0742 -33.9575 13.7918
head 17.0236 -15.1927 3.0411
rclavicle -2.974e-014 -2.50966e-015
rhumerus -39.7865 -14.4295 -74.8782
rradius 30.1561
rwrist 6.71793
rhand -16.117 8.394
rfingers 7.12502
rthumb 10.0873 -21.3442
lclavicle -2.974e-014 -2.50966e-015
lhumerus -36.0976 4.73009 79.5806
lradius 38.382
lwrist -3.46205
lhand -18.7054 27.8211
lfingers 7.12502
lthumb 7.58955 57.665
rfemur -17.3157 3.22589 20.8688
rtibia 56.979
rfoot -14.0521 7.85241
rtoes -1.05541
lfemur -9.39602 5.62947 -21.8535
ltibia 19.576
lfoot -13.6555 -21.6763
ltoes -17.5709
1942
root -11.8554 17.8621 5.96209 179.159 53.4247 177.348
lowerback 12.2496 -6.28737 -11.1858
upperback 0.218467 -9.72936 2.5537
thorax -4.27618 -4.56255 10.3495
lowerneck 6.43385 -22.1801 -16.1354
upperneck 34.2354 -33.8945 13.6642
head 17.0878 -15.1426 2.98054
rclavicle 2.05121e-014 -8.24956e-015
rhumerus -39.724 -14.2746 -74.9646
rradius 30.209
rwrist 6.55376
rhand -16.2593 8.36123
rfingers 7.12502
rthumb 9.94998 -21.3836
lclavicle 2.05121e-014 -8.24956e-015
lhumerus -36.2815 4.84929 79.4621
lradius 38.2672
lwrist -3.38628
lhand -19.1152 27.9082
lfingers 7.12502
lthumb 7.19396 57.7659
rfemur -16.564 3.62794 21.0209
rtibia 56.1475
rfoot -13.8159 9.03668
rtoes 2.33656
lfemur -10.083 5.59413 -21.7945
ltibia 20.0206
lfoot -13.8875 -22.102
ltoes -18.133
1943
root -11.9036 17.8526 6.03289 179.136 53.0411 177.181
lowerback 12.2175 -6.20418 -11.2722
upperback 0.155385 -9.63831 2.45546
thorax -4.35358 -4.5068 10.2855
lowerneck 6.56427 -22.2915 -15.9687
upperneck 34.2209 -34.0266 13.6179
head 17.0293 -15.1909 2.93404
rclavicle -5.96121e-014 -7.55382e-015
rhumerus -39.8245 -14.3843 -75.0687
rradius 30.4007
rwrist 6.14142
rhand -16.5592 8.2244
rfingers 7.12502
rthumb 9.66068 -21.5341
lclavicle -5.96121e-014 -7.55382e-015
lhumerus -36.3299 4.89492 79.2314
lradius 38.0825
lwrist -3.47448
lhand -18.555 27.7095
lfingers 7.12502
lthumb 7.73464 57.5481
rfemur -15.9176 3.95162 21.1308
rtibia 55.209
rfoot -13.62 9.96081
rtoes 3.06757
lfemur -10.7631 5.50249 -21.8765
ltibia 20.4178
lfoot -13.2606 -22.5404
ltoes -16.698
1944
root -11.9531 17.833 6.1007 179.25 52.6951 177.169
lowerback 12.1426 -6.14842 -11.2385
upperback 0.107874 -9.55986 2.37539
thorax -4.40296 -4.46294 10.1679
lowerneck 6.70261 -22.3651 -15.8728
upperneck 34.1951 -34.1337 13.6618
head 17.0027 -15.2291 2.93503
rclavicle -3.4514e-014 -3.21534e-014
rhumerus -39.8611 -14.3823 -75.22
rradius 30.5638
rwrist 5.96471
rhand -16.8103 8.16524
rfingers 7.12502
rthumb 9.41839 -21.6043
lclavicle -3.4514e-014 -3.21534e-014
lhumerus -36.375 4.90925 79.0115
lradius 37.8754
lwrist -3.38308
lhand -18.3575 27.7743
lfingers 7.12502
lthumb 7.92531 57.6058
rfemur -15.2537 4.01722 21.4634
rtibia 54.0177
rfoot -13.9054 10.2641
rtoes -2.38435
lfemur -11.5161 5.32103 -21.8615
ltibia 20.9094
lfoot -11.3598 -23.3093
ltoes -10.6385
1945
root -12.0029 17.8418 6.16663 179.434 52.3504 177.267
lowerback 12.049 -6.1901 -11.213
upperback 0.0992361 -9.60046 2.41293
thorax -4.34768 -4.48843 10.1836
lowerneck 6.53642 -22.3124 -15.8667
upperneck 34.2602 -34.0344 13.6087
head 17.032 -15.1724 2.91956
rclavicle 1.6201e-014 -2.8302e-014
rhumerus -39.689 -13.9065 -75.4488
rradius 30.7286
rwrist 5.72792
rhand -16.7114 8.22521
rfingers 7.12502
rthumb 9.5138 -21.54
lclavicle 1.6201e-014 -2.8302e-014
lhumerus -36.5135 5.0801 78.9061
lradius 37.7745
lwrist -3.10544
lhand -18.6436 27.7574
lfingers 7.12502
lthumb 7.64917 57.5991
rfemur -14.271 4.60094 21.7119
rtibia 52.9034
rfoot -14.2194 11.0669
rtoes -2.83939
lfemur -12.2152 5.10237 -21.7817
ltibia 21.4273
lfoot -9.38333 -23.7578
ltoes -5.05422
